<svg id="insta" xmlns="http://www.w3.org/2000/svg" width="16.425" height="16.416" viewBox="0 0 16.425 16.416">
  <g id="그룹_10" data-name="그룹 10" transform="translate(0 0)">
    <path id="SVGID_1_" d="M11.11,9.056a5.905,5.905,0,0,0-1.995.382,4.138,4.138,0,0,0-1.445.951,3.94,3.94,0,0,0-.942,1.454,6.144,6.144,0,0,0-.382,1.995c-.037.876-.047,1.156-.047,3.384s.019,2.508.056,3.384a5.8,5.8,0,0,0,.382,1.986,4.089,4.089,0,0,0,.951,1.454,3.94,3.94,0,0,0,1.454.942,6.144,6.144,0,0,0,1.995.382c.876.037,1.156.047,3.384.047s2.508-.009,3.384-.056a5.905,5.905,0,0,0,1.995-.382,4.089,4.089,0,0,0,1.454-.951,3.94,3.94,0,0,0,.942-1.454,6.144,6.144,0,0,0,.382-1.995c.037-.876.047-1.156.047-3.384s-.009-2.508-.056-3.384a5.905,5.905,0,0,0-.382-1.995,4.089,4.089,0,0,0-.951-1.454,3.94,3.94,0,0,0-1.454-.942,6.144,6.144,0,0,0-1.995-.382C17,9.009,16.722,9,14.494,9s-2.508.019-3.384.056M11.2,23.887a4.552,4.552,0,0,1-1.519-.28,2.742,2.742,0,0,1-1.557-1.557,4.542,4.542,0,0,1-.289-1.519c-.037-.867-.047-1.128-.056-3.319s0-2.452.037-3.319a4.552,4.552,0,0,1,.28-1.519,2.742,2.742,0,0,1,1.557-1.557,4.8,4.8,0,0,1,1.519-.289c.867-.037,1.128-.047,3.309-.056s2.452,0,3.319.037a4.552,4.552,0,0,1,1.519.28,2.468,2.468,0,0,1,.942.615,2.541,2.541,0,0,1,.615.942,4.8,4.8,0,0,1,.289,1.519c.037.867.047,1.128.056,3.309s0,2.452-.037,3.319a4.68,4.68,0,0,1-.28,1.529,2.742,2.742,0,0,1-1.557,1.557,4.8,4.8,0,0,1-1.519.289c-.867.037-1.128.047-3.319.056s-2.442,0-3.309-.037M17.9,12.822a.983.983,0,1,0,.979-.988.987.987,0,0,0-.979.988m-7.6,4.391a4.213,4.213,0,1,0,4.2-4.223,4.209,4.209,0,0,0-4.2,4.223m1.473,0a2.736,2.736,0,1,1,2.741,2.731,2.743,2.743,0,0,1-2.741-2.731" transform="translate(-6.3 -9)" fill="#666"/>
  </g>
</svg>
