<svg xmlns="http://www.w3.org/2000/svg" width="23.35" height="16.346" viewBox="0 0 23.35 16.346">
  <path id="yt" d="M154.473,235.8a2.925,2.925,0,0,0-2.064-2.064c-1.822-.489-9.123-.489-9.123-.489s-7.3,0-9.123.489A2.927,2.927,0,0,0,132.1,235.8a32.652,32.652,0,0,0,0,11.242,2.922,2.922,0,0,0,2.065,2.064c1.822.487,9.123.487,9.123.487s7.3,0,9.123-.487a2.925,2.925,0,0,0,2.064-2.064,32.652,32.652,0,0,0,0-11.242Zm-13.523,9.123V237.92l6.066,3.5Z" transform="translate(-131.61 -233.25)" fill="#666"/>
</svg>
