<svg xmlns="http://www.w3.org/2000/svg" width="22.292" height="22.279" viewBox="0 0 22.292 22.279">
  <g id="insta" transform="translate(0)">
    <g id="그룹_79" data-name="그룹 79" transform="translate(0 0)">
      <path id="SVGID_1_" d="M12.828,9.076a8.014,8.014,0,0,0-2.707.519,5.616,5.616,0,0,0-1.961,1.29,5.347,5.347,0,0,0-1.278,1.974,8.338,8.338,0,0,0-.519,2.707c-.051,1.189-.063,1.569-.063,4.592s.025,3.4.076,4.592a7.867,7.867,0,0,0,.519,2.695,5.549,5.549,0,0,0,1.29,1.974A5.347,5.347,0,0,0,10.159,30.7a8.338,8.338,0,0,0,2.707.519c1.189.051,1.569.063,4.592.063s3.4-.013,4.592-.076a8.014,8.014,0,0,0,2.707-.519,5.549,5.549,0,0,0,1.974-1.29A5.347,5.347,0,0,0,28.01,27.42a8.338,8.338,0,0,0,.519-2.707c.051-1.189.063-1.569.063-4.592s-.013-3.4-.076-4.592A8.014,8.014,0,0,0,28,12.821a5.549,5.549,0,0,0-1.29-1.974,5.347,5.347,0,0,0-1.974-1.278,8.338,8.338,0,0,0-2.707-.519C20.824,9.013,20.444,9,17.421,9s-3.4.025-4.592.076M12.955,29.2a6.178,6.178,0,0,1-2.062-.38A3.721,3.721,0,0,1,8.78,26.712a6.165,6.165,0,0,1-.392-2.062c-.051-1.177-.063-1.531-.076-4.5s0-3.327.051-4.5a6.178,6.178,0,0,1,.38-2.062,3.721,3.721,0,0,1,2.113-2.113,6.514,6.514,0,0,1,2.062-.392c1.177-.051,1.531-.063,4.491-.076s3.327,0,4.5.051a6.178,6.178,0,0,1,2.062.38,3.349,3.349,0,0,1,1.278.835,3.448,3.448,0,0,1,.835,1.278,6.514,6.514,0,0,1,.392,2.062c.051,1.177.063,1.531.076,4.491s0,3.327-.051,4.5a6.352,6.352,0,0,1-.38,2.075,3.721,3.721,0,0,1-2.113,2.113,6.513,6.513,0,0,1-2.062.392c-1.177.051-1.531.063-4.5.076s-3.315,0-4.491-.051m9.084-15.017a1.335,1.335,0,1,0,1.328-1.341,1.339,1.339,0,0,0-1.328,1.341M11.727,20.146a5.718,5.718,0,1,0,5.706-5.731,5.712,5.712,0,0,0-5.706,5.731m2,0a3.713,3.713,0,1,1,3.719,3.707,3.723,3.723,0,0,1-3.719-3.707" transform="translate(-6.3 -9)" fill="#fff"/>
    </g>
  </g>
</svg>
