<svg xmlns="http://www.w3.org/2000/svg" width="29.305" height="20.515" viewBox="0 0 29.305 20.515">
  <path id="youtube" d="M160.3,236.454a3.671,3.671,0,0,0-2.59-2.59c-2.286-.613-11.45-.613-11.45-.613s-9.165,0-11.45.613a3.673,3.673,0,0,0-2.592,2.59,40.978,40.978,0,0,0,0,14.109,3.668,3.668,0,0,0,2.592,2.59c2.286.612,11.45.612,11.45.612s9.164,0,11.45-.612a3.671,3.671,0,0,0,2.59-2.59,40.979,40.979,0,0,0,0-14.109ZM143.332,247.9v-8.792l7.614,4.4Z" transform="translate(-131.61 -233.25)" fill="#fff"/>
</svg>
