<svg id="sns_insta" xmlns="http://www.w3.org/2000/svg" width="24.883" height="24.869" viewBox="0 0 24.883 24.869">
  <g id="그룹_10" data-name="그룹 10" transform="translate(0 0)">
    <path id="SVGID_1_" d="M13.587,9.085a8.946,8.946,0,0,0-3.022.579A6.269,6.269,0,0,0,8.376,11.1a5.968,5.968,0,0,0-1.426,2.2,9.308,9.308,0,0,0-.579,3.022C6.314,17.657,6.3,18.08,6.3,21.456s.028,3.8.085,5.126a8.782,8.782,0,0,0,.579,3.008,6.194,6.194,0,0,0,1.44,2.2,5.968,5.968,0,0,0,2.2,1.426,9.308,9.308,0,0,0,3.022.579c1.327.056,1.751.071,5.126.071s3.8-.014,5.126-.085a8.946,8.946,0,0,0,3.022-.579,6.194,6.194,0,0,0,2.2-1.44,5.968,5.968,0,0,0,1.426-2.2,9.308,9.308,0,0,0,.579-3.022c.056-1.327.071-1.751.071-5.126s-.014-3.8-.085-5.126a8.946,8.946,0,0,0-.579-3.022,6.194,6.194,0,0,0-1.44-2.2,5.968,5.968,0,0,0-2.2-1.426,9.308,9.308,0,0,0-3.022-.579C22.512,9.014,22.088,9,18.713,9s-3.8.028-5.126.085m.141,22.468a6.9,6.9,0,0,1-2.3-.424,4.153,4.153,0,0,1-2.358-2.358,6.881,6.881,0,0,1-.438-2.3c-.056-1.313-.071-1.709-.085-5.027s0-3.714.056-5.027a6.9,6.9,0,0,1,.424-2.3,4.153,4.153,0,0,1,2.358-2.358,7.271,7.271,0,0,1,2.3-.438c1.313-.056,1.709-.071,5.013-.085s3.714,0,5.027.056a6.9,6.9,0,0,1,2.3.424,3.738,3.738,0,0,1,1.426.932,3.849,3.849,0,0,1,.932,1.426,7.271,7.271,0,0,1,.438,2.3c.056,1.313.071,1.709.085,5.013s0,3.714-.056,5.027a7.09,7.09,0,0,1-.424,2.316,4.153,4.153,0,0,1-2.358,2.358,7.271,7.271,0,0,1-2.3.438c-1.313.056-1.709.071-5.027.085s-3.7,0-5.013-.056M23.868,14.79a1.49,1.49,0,1,0,1.483-1.5,1.495,1.495,0,0,0-1.483,1.5M12.358,21.442a6.383,6.383,0,1,0,6.369-6.4,6.377,6.377,0,0,0-6.369,6.4m2.231,0a4.145,4.145,0,1,1,4.152,4.138,4.156,4.156,0,0,1-4.152-4.138" transform="translate(-6.3 -9)" fill="#3d3d3d"/>
  </g>
</svg>
