<svg xmlns="http://www.w3.org/2000/svg" width="29.176" height="20.424" viewBox="0 0 29.176 20.424">
  <path id="sns_youtube" d="M160.177,236.44a3.655,3.655,0,0,0-2.579-2.579c-2.276-.611-11.4-.611-11.4-.611s-9.125,0-11.4.611a3.657,3.657,0,0,0-2.581,2.579,40.8,40.8,0,0,0,0,14.046,3.652,3.652,0,0,0,2.581,2.579c2.276.609,11.4.609,11.4.609s9.123,0,11.4-.609a3.655,3.655,0,0,0,2.579-2.579,40.8,40.8,0,0,0,0-14.046Zm-16.9,11.4v-8.754l7.58,4.378Z" transform="translate(-131.61 -233.25)" fill="#3d3d3d"/>
</svg>
