<svg xmlns="http://www.w3.org/2000/svg" width="28.756" height="28.739" viewBox="0 0 28.756 28.739">
  <g id="insta" transform="translate(0)">
    <g id="그룹_12" data-name="그룹 12" transform="translate(0 0)">
      <path id="SVGID_1_" d="M14.721,9.1a10.338,10.338,0,0,0-3.492.669A7.245,7.245,0,0,0,8.7,11.432a6.9,6.9,0,0,0-1.648,2.546,10.756,10.756,0,0,0-.669,3.492C6.316,19,6.3,19.494,6.3,23.394c.016,3.9.033,4.39.1,5.924a10.149,10.149,0,0,0,.669,3.476A7.158,7.158,0,0,0,8.732,35.34a6.9,6.9,0,0,0,2.546,1.648,10.756,10.756,0,0,0,3.492.669c1.534.065,2.024.082,5.924.082,3.9-.016,4.39-.016,5.924-.1a10.338,10.338,0,0,0,3.492-.669,7.158,7.158,0,0,0,2.546-1.665,6.9,6.9,0,0,0,1.648-2.546,10.756,10.756,0,0,0,.669-3.492c.065-1.534.082-2.024.082-5.924-.016-3.9-.016-4.39-.1-5.924a10.338,10.338,0,0,0-.669-3.492,7.158,7.158,0,0,0-1.665-2.546,6.9,6.9,0,0,0-2.546-1.648,10.756,10.756,0,0,0-3.492-.669C25.035,9.016,24.546,9,20.645,9c-3.9.016-4.39.033-5.924.1m.163,25.965a7.969,7.969,0,0,1-2.66-.49A4.8,4.8,0,0,1,9.5,31.848a7.952,7.952,0,0,1-.506-2.66c-.065-1.518-.082-1.975-.1-5.81,0-3.835,0-4.292.065-5.81a7.969,7.969,0,0,1,.49-2.66,4.8,4.8,0,0,1,2.725-2.725,8.4,8.4,0,0,1,2.66-.506c1.518-.065,1.975-.082,5.794-.1,3.835,0,4.292,0,5.81.065a7.969,7.969,0,0,1,2.66.49,4.32,4.32,0,0,1,1.648,1.077,4.448,4.448,0,0,1,1.077,1.648,8.4,8.4,0,0,1,.506,2.66c.065,1.518.082,1.975.1,5.794.016,3.835,0,4.292-.065,5.81a8.193,8.193,0,0,1-.49,2.676,4.8,4.8,0,0,1-2.725,2.725,8.4,8.4,0,0,1-2.66.506c-1.518.065-1.975.082-5.81.1-3.819.016-4.276,0-5.794-.065M26.6,15.691a1.722,1.722,0,1,0,1.714-1.73,1.727,1.727,0,0,0-1.714,1.73M13.3,23.378a7.377,7.377,0,1,0,7.36-7.393,7.369,7.369,0,0,0-7.36,7.393m2.579,0a4.79,4.79,0,1,1,4.8,4.782,4.8,4.8,0,0,1-4.8-4.782" transform="translate(-6.3 -9)" fill="#3d3d3d"/>
    </g>
  </g>
</svg>
